Output #0, avi, to '02.muxing.avi':
    Stream #0:0: Video: mpeg4, yuv420p, 640x480, q=2-31, 400 kb/s, 25 tbn
    Stream #0:1: Audio: mp3, 44100 Hz, stereo, s32p, 64 kb/s
合成视频
pts:0 pts_time:0 dts:0 dts_time:0 duration:0 duration_time:0 stream_index:0
pts:1 pts_time:0.04 dts:1 dts_time:0.04 duration:0 duration_time:0 stream_index:0
pts:-1 pts_time:-0.0261224 dts:-1 dts_time:-0.0261224 duration:1 duration_time:0.0261224 stream_index:1
pts:0 pts_time:0 dts:0 dts_time:0 duration:1 duration_time:0.0261224 stream_index:1
pts:2 pts_time:0.08 dts:2 dts_time:0.08 duration:0 duration_time:0 stream_index:0
pts:1 pts_time:0.0261224 dts:1 dts_time:0.0261224 duration:1 duration_time:0.0261224 stream_index:1
pts:3 pts_time:0.12 dts:3 dts_time:0.12 duration:0 duration_time:0 stream_index:0
pts:2 pts_time:0.0522449 dts:2 dts_time:0.0522449 duration:1 duration_time:0.0261224 stream_index:1
pts:3 pts_time:0.0783673 dts:3 dts_time:0.0783673 duration:1 duration_time:0.0261224 stream_index:1
pts:4 pts_time:0.16 dts:4 dts_time:0.16 duration:0 duration_time:0 stream_index:0
pts:4 pts_time:0.10449 dts:4 dts_time:0.10449 duration:1 duration_time:0.0261224 stream_index:1
pts:5 pts_time:0.2 dts:5 dts_time:0.2 duration:0 duration_time:0 stream_index:0
pts:5 pts_time:0.130612 dts:5 dts_time:0.130612 duration:1 duration_time:0.0261224 stream_index:1
pts:6 pts_time:0.156735 dts:6 dts_time:0.156735 duration:1 duration_time:0.0261224 stream_index:1
pts:6 pts_time:0.24 dts:6 dts_time:0.24 duration:0 duration_time:0 stream_index:0
pts:7 pts_time:0.182857 dts:7 dts_time:0.182857 duration:1 duration_time:0.0261224 stream_index:1
pts:7 pts_time:0.28 dts:7 dts_time:0.28 duration:0 duration_time:0 stream_index:0
pts:8 pts_time:0.20898 dts:8 dts_time:0.20898 duration:1 duration_time:0.0261224 stream_index:1
pts:8 pts_time:0.32 dts:8 dts_time:0.32 duration:0 duration_time:0 stream_index:0
pts:9 pts_time:0.235102 dts:9 dts_time:0.235102 duration:1 duration_time:0.0261224 stream_index:1
pts:9 pts_time:0.36 dts:9 dts_time:0.36 duration:0 duration_time:0 stream_index:0
pts:10 pts_time:0.261224 dts:10 dts_time:0.261224 duration:1 duration_time:0.0261224 stream_index:1
pts:11 pts_time:0.287347 dts:11 dts_time:0.287347 duration:1 duration_time:0.0261224 stream_index:1
pts:10 pts_time:0.4 dts:10 dts_time:0.4 duration:0 duration_time:0 stream_index:0
pts:12 pts_time:0.313469 dts:12 dts_time:0.313469 duration:1 duration_time:0.0261224 stream_index:1
pts:11 pts_time:0.44 dts:11 dts_time:0.44 duration:0 duration_time:0 stream_index:0
pts:13 pts_time:0.339592 dts:13 dts_time:0.339592 duration:1 duration_time:0.0261224 stream_index:1
pts:14 pts_time:0.365714 dts:14 dts_time:0.365714 duration:1 duration_time:0.0261224 stream_index:1
pts:12 pts_time:0.48 dts:12 dts_time:0.48 duration:0 duration_time:0 stream_index:0
pts:15 pts_time:0.391837 dts:15 dts_time:0.391837 duration:1 duration_time:0.0261224 stream_index:1
pts:13 pts_time:0.52 dts:13 dts_time:0.52 duration:0 duration_time:0 stream_index:0
pts:16 pts_time:0.417959 dts:16 dts_time:0.417959 duration:1 duration_time:0.0261224 stream_index:1
pts:17 pts_time:0.444082 dts:17 dts_time:0.444082 duration:1 duration_time:0.0261224 stream_index:1
pts:14 pts_time:0.56 dts:14 dts_time:0.56 duration:0 duration_time:0 stream_index:0
pts:15 pts_time:0.6 dts:15 dts_time:0.6 duration:0 duration_time:0 stream_index:0
pts:18 pts_time:0.470204 dts:18 dts_time:0.470204 duration:1 duration_time:0.0261224 stream_index:1
pts:19 pts_time:0.496327 dts:19 dts_time:0.496327 duration:1 duration_time:0.0261224 stream_index:1
pts:16 pts_time:0.64 dts:16 dts_time:0.64 duration:0 duration_time:0 stream_index:0
pts:20 pts_time:0.522449 dts:20 dts_time:0.522449 duration:1 duration_time:0.0261224 stream_index:1
pts:21 pts_time:0.548571 dts:21 dts_time:0.548571 duration:1 duration_time:0.0261224 stream_index:1
pts:17 pts_time:0.68 dts:17 dts_time:0.68 duration:0 duration_time:0 stream_index:0
pts:22 pts_time:0.574694 dts:22 dts_time:0.574694 duration:1 duration_time:0.0261224 stream_index:1
pts:18 pts_time:0.72 dts:18 dts_time:0.72 duration:0 duration_time:0 stream_index:0
pts:23 pts_time:0.600816 dts:23 dts_time:0.600816 duration:1 duration_time:0.0261224 stream_index:1
pts:24 pts_time:0.626939 dts:24 dts_time:0.626939 duration:1 duration_time:0.0261224 stream_index:1
pts:19 pts_time:0.76 dts:19 dts_time:0.76 duration:0 duration_time:0 stream_index:0
pts:25 pts_time:0.653061 dts:25 dts_time:0.653061 duration:1 duration_time:0.0261224 stream_index:1
pts:20 pts_time:0.8 dts:20 dts_time:0.8 duration:0 duration_time:0 stream_index:0
pts:26 pts_time:0.679184 dts:26 dts_time:0.679184 duration:1 duration_time:0.0261224 stream_index:1
pts:27 pts_time:0.705306 dts:27 dts_time:0.705306 duration:1 duration_time:0.0261224 stream_index:1
pts:21 pts_time:0.84 dts:21 dts_time:0.84 duration:0 duration_time:0 stream_index:0
pts:28 pts_time:0.731429 dts:28 dts_time:0.731429 duration:1 duration_time:0.0261224 stream_index:1
pts:22 pts_time:0.88 dts:22 dts_time:0.88 duration:0 duration_time:0 stream_index:0
pts:29 pts_time:0.757551 dts:29 dts_time:0.757551 duration:1 duration_time:0.0261224 stream_index:1
pts:30 pts_time:0.783673 dts:30 dts_time:0.783673 duration:1 duration_time:0.0261224 stream_index:1
pts:23 pts_time:0.92 dts:23 dts_time:0.92 duration:0 duration_time:0 stream_index:0
pts:31 pts_time:0.809796 dts:31 dts_time:0.809796 duration:1 duration_time:0.0261224 stream_index:1
pts:24 pts_time:0.96 dts:24 dts_time:0.96 duration:0 duration_time:0 stream_index:0
pts:32 pts_time:0.835918 dts:32 dts_time:0.835918 duration:1 duration_time:0.0261224 stream_index:1
pts:33 pts_time:0.862041 dts:33 dts_time:0.862041 duration:1 duration_time:0.0261224 stream_index:1
pts:25 pts_time:1 dts:25 dts_time:1 duration:0 duration_time:0 stream_index:0
pts:34 pts_time:0.888163 dts:34 dts_time:0.888163 duration:1 duration_time:0.0261224 stream_index:1
pts:26 pts_time:1.04 dts:26 dts_time:1.04 duration:0 duration_time:0 stream_index:0
pts:35 pts_time:0.914286 dts:35 dts_time:0.914286 duration:1 duration_time:0.0261224 stream_index:1
pts:36 pts_time:0.940408 dts:36 dts_time:0.940408 duration:1 duration_time:0.0261224 stream_index:1
pts:27 pts_time:1.08 dts:27 dts_time:1.08 duration:0 duration_time:0 stream_index:0
pts:37 pts_time:0.966531 dts:37 dts_time:0.966531 duration:1 duration_time:0.0261224 stream_index:1
pts:28 pts_time:1.12 dts:28 dts_time:1.12 duration:0 duration_time:0 stream_index:0
pts:38 pts_time:0.992653 dts:38 dts_time:0.992653 duration:1 duration_time:0.0261224 stream_index:1
pts:39 pts_time:1.01878 dts:39 dts_time:1.01878 duration:1 duration_time:0.0261224 stream_index:1
pts:29 pts_time:1.16 dts:29 dts_time:1.16 duration:0 duration_time:0 stream_index:0
pts:40 pts_time:1.0449 dts:40 dts_time:1.0449 duration:1 duration_time:0.0261224 stream_index:1
pts:30 pts_time:1.2 dts:30 dts_time:1.2 duration:0 duration_time:0 stream_index:0
pts:41 pts_time:1.07102 dts:41 dts_time:1.07102 duration:1 duration_time:0.0261224 stream_index:1
pts:42 pts_time:1.09714 dts:42 dts_time:1.09714 duration:1 duration_time:0.0261224 stream_index:1
pts:31 pts_time:1.24 dts:31 dts_time:1.24 duration:0 duration_time:0 stream_index:0
pts:43 pts_time:1.12327 dts:43 dts_time:1.12327 duration:1 duration_time:0.0261224 stream_index:1
pts:32 pts_time:1.28 dts:32 dts_time:1.28 duration:0 duration_time:0 stream_index:0
pts:44 pts_time:1.14939 dts:44 dts_time:1.14939 duration:1 duration_time:0.0261224 stream_index:1
pts:45 pts_time:1.17551 dts:45 dts_time:1.17551 duration:1 duration_time:0.0261224 stream_index:1
pts:33 pts_time:1.32 dts:33 dts_time:1.32 duration:0 duration_time:0 stream_index:0
pts:46 pts_time:1.20163 dts:46 dts_time:1.20163 duration:1 duration_time:0.0261224 stream_index:1
pts:47 pts_time:1.22776 dts:47 dts_time:1.22776 duration:1 duration_time:0.0261224 stream_index:1
pts:34 pts_time:1.36 dts:34 dts_time:1.36 duration:0 duration_time:0 stream_index:0
pts:48 pts_time:1.25388 dts:48 dts_time:1.25388 duration:1 duration_time:0.0261224 stream_index:1
pts:35 pts_time:1.4 dts:35 dts_time:1.4 duration:0 duration_time:0 stream_index:0
pts:49 pts_time:1.28 dts:49 dts_time:1.28 duration:1 duration_time:0.0261224 stream_index:1
pts:50 pts_time:1.30612 dts:50 dts_time:1.30612 duration:1 duration_time:0.0261224 stream_index:1
pts:36 pts_time:1.44 dts:36 dts_time:1.44 duration:0 duration_time:0 stream_index:0
pts:51 pts_time:1.33224 dts:51 dts_time:1.33224 duration:1 duration_time:0.0261224 stream_index:1
pts:37 pts_time:1.48 dts:37 dts_time:1.48 duration:0 duration_time:0 stream_index:0
pts:52 pts_time:1.35837 dts:52 dts_time:1.35837 duration:1 duration_time:0.0261224 stream_index:1
pts:53 pts_time:1.38449 dts:53 dts_time:1.38449 duration:1 duration_time:0.0261224 stream_index:1
pts:38 pts_time:1.52 dts:38 dts_time:1.52 duration:0 duration_time:0 stream_index:0
pts:54 pts_time:1.41061 dts:54 dts_time:1.41061 duration:1 duration_time:0.0261224 stream_index:1
pts:39 pts_time:1.56 dts:39 dts_time:1.56 duration:0 duration_time:0 stream_index:0
pts:55 pts_time:1.43673 dts:55 dts_time:1.43673 duration:1 duration_time:0.0261224 stream_index:1
pts:56 pts_time:1.46286 dts:56 dts_time:1.46286 duration:1 duration_time:0.0261224 stream_index:1
pts:40 pts_time:1.6 dts:40 dts_time:1.6 duration:0 duration_time:0 stream_index:0
pts:57 pts_time:1.48898 dts:57 dts_time:1.48898 duration:1 duration_time:0.0261224 stream_index:1
pts:41 pts_time:1.64 dts:41 dts_time:1.64 duration:0 duration_time:0 stream_index:0
pts:58 pts_time:1.5151 dts:58 dts_time:1.5151 duration:1 duration_time:0.0261224 stream_index:1
pts:59 pts_time:1.54122 dts:59 dts_time:1.54122 duration:1 duration_time:0.0261224 stream_index:1
pts:42 pts_time:1.68 dts:42 dts_time:1.68 duration:0 duration_time:0 stream_index:0
pts:60 pts_time:1.56735 dts:60 dts_time:1.56735 duration:1 duration_time:0.0261224 stream_index:1
pts:43 pts_time:1.72 dts:43 dts_time:1.72 duration:0 duration_time:0 stream_index:0
pts:61 pts_time:1.59347 dts:61 dts_time:1.59347 duration:1 duration_time:0.0261224 stream_index:1
pts:62 pts_time:1.61959 dts:62 dts_time:1.61959 duration:1 duration_time:0.0261224 stream_index:1
pts:44 pts_time:1.76 dts:44 dts_time:1.76 duration:0 duration_time:0 stream_index:0
pts:63 pts_time:1.64571 dts:63 dts_time:1.64571 duration:1 duration_time:0.0261224 stream_index:1
pts:45 pts_time:1.8 dts:45 dts_time:1.8 duration:0 duration_time:0 stream_index:0
pts:64 pts_time:1.67184 dts:64 dts_time:1.67184 duration:1 duration_time:0.0261224 stream_index:1
pts:65 pts_time:1.69796 dts:65 dts_time:1.69796 duration:1 duration_time:0.0261224 stream_index:1
pts:46 pts_time:1.84 dts:46 dts_time:1.84 duration:0 duration_time:0 stream_index:0
pts:66 pts_time:1.72408 dts:66 dts_time:1.72408 duration:1 duration_time:0.0261224 stream_index:1
pts:47 pts_time:1.88 dts:47 dts_time:1.88 duration:0 duration_time:0 stream_index:0
pts:67 pts_time:1.7502 dts:67 dts_time:1.7502 duration:1 duration_time:0.0261224 stream_index:1
pts:68 pts_time:1.77633 dts:68 dts_time:1.77633 duration:1 duration_time:0.0261224 stream_index:1
pts:48 pts_time:1.92 dts:48 dts_time:1.92 duration:0 duration_time:0 stream_index:0
pts:69 pts_time:1.80245 dts:69 dts_time:1.80245 duration:1 duration_time:0.0261224 stream_index:1
pts:70 pts_time:1.82857 dts:70 dts_time:1.82857 duration:1 duration_time:0.0261224 stream_index:1
pts:49 pts_time:1.96 dts:49 dts_time:1.96 duration:0 duration_time:0 stream_index:0
pts:71 pts_time:1.85469 dts:71 dts_time:1.85469 duration:1 duration_time:0.0261224 stream_index:1
pts:50 pts_time:2 dts:50 dts_time:2 duration:0 duration_time:0 stream_index:0
pts:72 pts_time:1.88082 dts:72 dts_time:1.88082 duration:1 duration_time:0.0261224 stream_index:1
pts:73 pts_time:1.90694 dts:73 dts_time:1.90694 duration:1 duration_time:0.0261224 stream_index:1
pts:51 pts_time:2.04 dts:51 dts_time:2.04 duration:0 duration_time:0 stream_index:0
pts:74 pts_time:1.93306 dts:74 dts_time:1.93306 duration:1 duration_time:0.0261224 stream_index:1
pts:52 pts_time:2.08 dts:52 dts_time:2.08 duration:0 duration_time:0 stream_index:0
pts:75 pts_time:1.95918 dts:75 dts_time:1.95918 duration:1 duration_time:0.0261224 stream_index:1
pts:76 pts_time:1.98531 dts:76 dts_time:1.98531 duration:1 duration_time:0.0261224 stream_index:1
pts:53 pts_time:2.12 dts:53 dts_time:2.12 duration:0 duration_time:0 stream_index:0
pts:77 pts_time:2.01143 dts:77 dts_time:2.01143 duration:1 duration_time:0.0261224 stream_index:1
pts:54 pts_time:2.16 dts:54 dts_time:2.16 duration:0 duration_time:0 stream_index:0
pts:78 pts_time:2.03755 dts:78 dts_time:2.03755 duration:1 duration_time:0.0261224 stream_index:1
pts:79 pts_time:2.06367 dts:79 dts_time:2.06367 duration:1 duration_time:0.0261224 stream_index:1
pts:55 pts_time:2.2 dts:55 dts_time:2.2 duration:0 duration_time:0 stream_index:0
pts:80 pts_time:2.0898 dts:80 dts_time:2.0898 duration:1 duration_time:0.0261224 stream_index:1
pts:56 pts_time:2.24 dts:56 dts_time:2.24 duration:0 duration_time:0 stream_index:0
pts:81 pts_time:2.11592 dts:81 dts_time:2.11592 duration:1 duration_time:0.0261224 stream_index:1
pts:82 pts_time:2.14204 dts:82 dts_time:2.14204 duration:1 duration_time:0.0261224 stream_index:1
pts:57 pts_time:2.28 dts:57 dts_time:2.28 duration:0 duration_time:0 stream_index:0
pts:83 pts_time:2.16816 dts:83 dts_time:2.16816 duration:1 duration_time:0.0261224 stream_index:1
pts:58 pts_time:2.32 dts:58 dts_time:2.32 duration:0 duration_time:0 stream_index:0
pts:84 pts_time:2.19429 dts:84 dts_time:2.19429 duration:1 duration_time:0.0261224 stream_index:1
pts:85 pts_time:2.22041 dts:85 dts_time:2.22041 duration:1 duration_time:0.0261224 stream_index:1
pts:59 pts_time:2.36 dts:59 dts_time:2.36 duration:0 duration_time:0 stream_index:0
pts:86 pts_time:2.24653 dts:86 dts_time:2.24653 duration:1 duration_time:0.0261224 stream_index:1
pts:60 pts_time:2.4 dts:60 dts_time:2.4 duration:0 duration_time:0 stream_index:0
pts:87 pts_time:2.27265 dts:87 dts_time:2.27265 duration:1 duration_time:0.0261224 stream_index:1
pts:88 pts_time:2.29878 dts:88 dts_time:2.29878 duration:1 duration_time:0.0261224 stream_index:1
pts:61 pts_time:2.44 dts:61 dts_time:2.44 duration:0 duration_time:0 stream_index:0
pts:89 pts_time:2.3249 dts:89 dts_time:2.3249 duration:1 duration_time:0.0261224 stream_index:1
pts:62 pts_time:2.48 dts:62 dts_time:2.48 duration:0 duration_time:0 stream_index:0
pts:90 pts_time:2.35102 dts:90 dts_time:2.35102 duration:1 duration_time:0.0261224 stream_index:1
pts:91 pts_time:2.37714 dts:91 dts_time:2.37714 duration:1 duration_time:0.0261224 stream_index:1
pts:63 pts_time:2.52 dts:63 dts_time:2.52 duration:0 duration_time:0 stream_index:0
pts:92 pts_time:2.40327 dts:92 dts_time:2.40327 duration:1 duration_time:0.0261224 stream_index:1
pts:64 pts_time:2.56 dts:64 dts_time:2.56 duration:0 duration_time:0 stream_index:0
pts:93 pts_time:2.42939 dts:93 dts_time:2.42939 duration:1 duration_time:0.0261224 stream_index:1
pts:94 pts_time:2.45551 dts:94 dts_time:2.45551 duration:1 duration_time:0.0261224 stream_index:1
pts:65 pts_time:2.6 dts:65 dts_time:2.6 duration:0 duration_time:0 stream_index:0
pts:95 pts_time:2.48163 dts:95 dts_time:2.48163 duration:1 duration_time:0.0261224 stream_index:1
pts:96 pts_time:2.50776 dts:96 dts_time:2.50776 duration:1 duration_time:0.0261224 stream_index:1
pts:66 pts_time:2.64 dts:66 dts_time:2.64 duration:0 duration_time:0 stream_index:0
pts:97 pts_time:2.53388 dts:97 dts_time:2.53388 duration:1 duration_time:0.0261224 stream_index:1
pts:67 pts_time:2.68 dts:67 dts_time:2.68 duration:0 duration_time:0 stream_index:0
pts:98 pts_time:2.56 dts:98 dts_time:2.56 duration:1 duration_time:0.0261224 stream_index:1
pts:99 pts_time:2.58612 dts:99 dts_time:2.58612 duration:1 duration_time:0.0261224 stream_index:1
pts:68 pts_time:2.72 dts:68 dts_time:2.72 duration:0 duration_time:0 stream_index:0
pts:100 pts_time:2.61224 dts:100 dts_time:2.61224 duration:1 duration_time:0.0261224 stream_index:1
pts:69 pts_time:2.76 dts:69 dts_time:2.76 duration:0 duration_time:0 stream_index:0
pts:101 pts_time:2.63837 dts:101 dts_time:2.63837 duration:1 duration_time:0.0261224 stream_index:1
pts:102 pts_time:2.66449 dts:102 dts_time:2.66449 duration:1 duration_time:0.0261224 stream_index:1
pts:70 pts_time:2.8 dts:70 dts_time:2.8 duration:0 duration_time:0 stream_index:0
pts:103 pts_time:2.69061 dts:103 dts_time:2.69061 duration:1 duration_time:0.0261224 stream_index:1
pts:71 pts_time:2.84 dts:71 dts_time:2.84 duration:0 duration_time:0 stream_index:0
pts:104 pts_time:2.71673 dts:104 dts_time:2.71673 duration:1 duration_time:0.0261224 stream_index:1
pts:105 pts_time:2.74286 dts:105 dts_time:2.74286 duration:1 duration_time:0.0261224 stream_index:1
pts:72 pts_time:2.88 dts:72 dts_time:2.88 duration:0 duration_time:0 stream_index:0
pts:106 pts_time:2.76898 dts:106 dts_time:2.76898 duration:1 duration_time:0.0261224 stream_index:1
pts:73 pts_time:2.92 dts:73 dts_time:2.92 duration:0 duration_time:0 stream_index:0
pts:107 pts_time:2.7951 dts:107 dts_time:2.7951 duration:1 duration_time:0.0261224 stream_index:1
pts:108 pts_time:2.82122 dts:108 dts_time:2.82122 duration:1 duration_time:0.0261224 stream_index:1
pts:74 pts_time:2.96 dts:74 dts_time:2.96 duration:0 duration_time:0 stream_index:0
pts:109 pts_time:2.84735 dts:109 dts_time:2.84735 duration:1 duration_time:0.0261224 stream_index:1
pts:75 pts_time:3 dts:75 dts_time:3 duration:0 duration_time:0 stream_index:0
pts:110 pts_time:2.87347 dts:110 dts_time:2.87347 duration:1 duration_time:0.0261224 stream_index:1
pts:111 pts_time:2.89959 dts:111 dts_time:2.89959 duration:1 duration_time:0.0261224 stream_index:1
pts:76 pts_time:3.04 dts:76 dts_time:3.04 duration:0 duration_time:0 stream_index:0
pts:112 pts_time:2.92571 dts:112 dts_time:2.92571 duration:1 duration_time:0.0261224 stream_index:1
pts:77 pts_time:3.08 dts:77 dts_time:3.08 duration:0 duration_time:0 stream_index:0
pts:113 pts_time:2.95184 dts:113 dts_time:2.95184 duration:1 duration_time:0.0261224 stream_index:1
pts:114 pts_time:2.97796 dts:114 dts_time:2.97796 duration:1 duration_time:0.0261224 stream_index:1
pts:78 pts_time:3.12 dts:78 dts_time:3.12 duration:0 duration_time:0 stream_index:0
pts:115 pts_time:3.00408 dts:115 dts_time:3.00408 duration:1 duration_time:0.0261224 stream_index:1
pts:79 pts_time:3.16 dts:79 dts_time:3.16 duration:0 duration_time:0 stream_index:0
pts:116 pts_time:3.0302 dts:116 dts_time:3.0302 duration:1 duration_time:0.0261224 stream_index:1
pts:117 pts_time:3.05633 dts:117 dts_time:3.05633 duration:1 duration_time:0.0261224 stream_index:1
pts:80 pts_time:3.2 dts:80 dts_time:3.2 duration:0 duration_time:0 stream_index:0
pts:118 pts_time:3.08245 dts:118 dts_time:3.08245 duration:1 duration_time:0.0261224 stream_index:1
pts:119 pts_time:3.10857 dts:119 dts_time:3.10857 duration:1 duration_time:0.0261224 stream_index:1
pts:81 pts_time:3.24 dts:81 dts_time:3.24 duration:0 duration_time:0 stream_index:0
pts:120 pts_time:3.13469 dts:120 dts_time:3.13469 duration:1 duration_time:0.0261224 stream_index:1
pts:82 pts_time:3.28 dts:82 dts_time:3.28 duration:0 duration_time:0 stream_index:0
pts:121 pts_time:3.16082 dts:121 dts_time:3.16082 duration:1 duration_time:0.0261224 stream_index:1
pts:122 pts_time:3.18694 dts:122 dts_time:3.18694 duration:1 duration_time:0.0261224 stream_index:1
pts:83 pts_time:3.32 dts:83 dts_time:3.32 duration:0 duration_time:0 stream_index:0
pts:123 pts_time:3.21306 dts:123 dts_time:3.21306 duration:1 duration_time:0.0261224 stream_index:1
pts:84 pts_time:3.36 dts:84 dts_time:3.36 duration:0 duration_time:0 stream_index:0
pts:124 pts_time:3.23918 dts:124 dts_time:3.23918 duration:1 duration_time:0.0261224 stream_index:1
pts:125 pts_time:3.26531 dts:125 dts_time:3.26531 duration:1 duration_time:0.0261224 stream_index:1
pts:85 pts_time:3.4 dts:85 dts_time:3.4 duration:0 duration_time:0 stream_index:0
pts:126 pts_time:3.29143 dts:126 dts_time:3.29143 duration:1 duration_time:0.0261224 stream_index:1
pts:86 pts_time:3.44 dts:86 dts_time:3.44 duration:0 duration_time:0 stream_index:0
pts:127 pts_time:3.31755 dts:127 dts_time:3.31755 duration:1 duration_time:0.0261224 stream_index:1
pts:128 pts_time:3.34367 dts:128 dts_time:3.34367 duration:1 duration_time:0.0261224 stream_index:1
pts:87 pts_time:3.48 dts:87 dts_time:3.48 duration:0 duration_time:0 stream_index:0
pts:129 pts_time:3.3698 dts:129 dts_time:3.3698 duration:1 duration_time:0.0261224 stream_index:1
pts:88 pts_time:3.52 dts:88 dts_time:3.52 duration:0 duration_time:0 stream_index:0
pts:130 pts_time:3.39592 dts:130 dts_time:3.39592 duration:1 duration_time:0.0261224 stream_index:1
pts:131 pts_time:3.42204 dts:131 dts_time:3.42204 duration:1 duration_time:0.0261224 stream_index:1
pts:89 pts_time:3.56 dts:89 dts_time:3.56 duration:0 duration_time:0 stream_index:0
pts:132 pts_time:3.44816 dts:132 dts_time:3.44816 duration:1 duration_time:0.0261224 stream_index:1
pts:90 pts_time:3.6 dts:90 dts_time:3.6 duration:0 duration_time:0 stream_index:0
pts:133 pts_time:3.47429 dts:133 dts_time:3.47429 duration:1 duration_time:0.0261224 stream_index:1
pts:134 pts_time:3.50041 dts:134 dts_time:3.50041 duration:1 duration_time:0.0261224 stream_index:1
pts:91 pts_time:3.64 dts:91 dts_time:3.64 duration:0 duration_time:0 stream_index:0
pts:135 pts_time:3.52653 dts:135 dts_time:3.52653 duration:1 duration_time:0.0261224 stream_index:1
pts:92 pts_time:3.68 dts:92 dts_time:3.68 duration:0 duration_time:0 stream_index:0
pts:136 pts_time:3.55265 dts:136 dts_time:3.55265 duration:1 duration_time:0.0261224 stream_index:1
pts:137 pts_time:3.57878 dts:137 dts_time:3.57878 duration:1 duration_time:0.0261224 stream_index:1
pts:93 pts_time:3.72 dts:93 dts_time:3.72 duration:0 duration_time:0 stream_index:0
pts:138 pts_time:3.6049 dts:138 dts_time:3.6049 duration:1 duration_time:0.0261224 stream_index:1
pts:94 pts_time:3.76 dts:94 dts_time:3.76 duration:0 duration_time:0 stream_index:0
pts:139 pts_time:3.63102 dts:139 dts_time:3.63102 duration:1 duration_time:0.0261224 stream_index:1
pts:140 pts_time:3.65714 dts:140 dts_time:3.65714 duration:1 duration_time:0.0261224 stream_index:1
pts:95 pts_time:3.8 dts:95 dts_time:3.8 duration:0 duration_time:0 stream_index:0
pts:141 pts_time:3.68327 dts:141 dts_time:3.68327 duration:1 duration_time:0.0261224 stream_index:1
pts:96 pts_time:3.84 dts:96 dts_time:3.84 duration:0 duration_time:0 stream_index:0
pts:142 pts_time:3.70939 dts:142 dts_time:3.70939 duration:1 duration_time:0.0261224 stream_index:1
pts:143 pts_time:3.73551 dts:143 dts_time:3.73551 duration:1 duration_time:0.0261224 stream_index:1
pts:97 pts_time:3.88 dts:97 dts_time:3.88 duration:0 duration_time:0 stream_index:0
pts:144 pts_time:3.76163 dts:144 dts_time:3.76163 duration:1 duration_time:0.0261224 stream_index:1
pts:145 pts_time:3.78776 dts:145 dts_time:3.78776 duration:1 duration_time:0.0261224 stream_index:1
pts:98 pts_time:3.92 dts:98 dts_time:3.92 duration:0 duration_time:0 stream_index:0
pts:146 pts_time:3.81388 dts:146 dts_time:3.81388 duration:1 duration_time:0.0261224 stream_index:1
pts:99 pts_time:3.96 dts:99 dts_time:3.96 duration:0 duration_time:0 stream_index:0
pts:147 pts_time:3.84 dts:147 dts_time:3.84 duration:1 duration_time:0.0261224 stream_index:1
pts:148 pts_time:3.86612 dts:148 dts_time:3.86612 duration:1 duration_time:0.0261224 stream_index:1
pts:100 pts_time:4 dts:100 dts_time:4 duration:0 duration_time:0 stream_index:0
pts:149 pts_time:3.89224 dts:149 dts_time:3.89224 duration:1 duration_time:0.0261224 stream_index:1
pts:101 pts_time:4.04 dts:101 dts_time:4.04 duration:0 duration_time:0 stream_index:0
pts:150 pts_time:3.91837 dts:150 dts_time:3.91837 duration:1 duration_time:0.0261224 stream_index:1
pts:151 pts_time:3.94449 dts:151 dts_time:3.94449 duration:1 duration_time:0.0261224 stream_index:1
pts:102 pts_time:4.08 dts:102 dts_time:4.08 duration:0 duration_time:0 stream_index:0
pts:152 pts_time:3.97061 dts:152 dts_time:3.97061 duration:1 duration_time:0.0261224 stream_index:1
pts:103 pts_time:4.12 dts:103 dts_time:4.12 duration:0 duration_time:0 stream_index:0
pts:153 pts_time:3.99673 dts:153 dts_time:3.99673 duration:1 duration_time:0.0261224 stream_index:1
pts:154 pts_time:4.02286 dts:154 dts_time:4.02286 duration:1 duration_time:0.0261224 stream_index:1
pts:104 pts_time:4.16 dts:104 dts_time:4.16 duration:0 duration_time:0 stream_index:0
pts:155 pts_time:4.04898 dts:155 dts_time:4.04898 duration:1 duration_time:0.0261224 stream_index:1
pts:105 pts_time:4.2 dts:105 dts_time:4.2 duration:0 duration_time:0 stream_index:0
pts:156 pts_time:4.0751 dts:156 dts_time:4.0751 duration:1 duration_time:0.0261224 stream_index:1
pts:157 pts_time:4.10122 dts:157 dts_time:4.10122 duration:1 duration_time:0.0261224 stream_index:1
pts:106 pts_time:4.24 dts:106 dts_time:4.24 duration:0 duration_time:0 stream_index:0
pts:158 pts_time:4.12735 dts:158 dts_time:4.12735 duration:1 duration_time:0.0261224 stream_index:1
pts:107 pts_time:4.28 dts:107 dts_time:4.28 duration:0 duration_time:0 stream_index:0
pts:159 pts_time:4.15347 dts:159 dts_time:4.15347 duration:1 duration_time:0.0261224 stream_index:1
pts:160 pts_time:4.17959 dts:160 dts_time:4.17959 duration:1 duration_time:0.0261224 stream_index:1
pts:108 pts_time:4.32 dts:108 dts_time:4.32 duration:0 duration_time:0 stream_index:0
pts:161 pts_time:4.20571 dts:161 dts_time:4.20571 duration:1 duration_time:0.0261224 stream_index:1
pts:109 pts_time:4.36 dts:109 dts_time:4.36 duration:0 duration_time:0 stream_index:0
pts:162 pts_time:4.23184 dts:162 dts_time:4.23184 duration:1 duration_time:0.0261224 stream_index:1
pts:163 pts_time:4.25796 dts:163 dts_time:4.25796 duration:1 duration_time:0.0261224 stream_index:1
pts:110 pts_time:4.4 dts:110 dts_time:4.4 duration:0 duration_time:0 stream_index:0
pts:164 pts_time:4.28408 dts:164 dts_time:4.28408 duration:1 duration_time:0.0261224 stream_index:1
pts:111 pts_time:4.44 dts:111 dts_time:4.44 duration:0 duration_time:0 stream_index:0
pts:165 pts_time:4.3102 dts:165 dts_time:4.3102 duration:1 duration_time:0.0261224 stream_index:1
pts:166 pts_time:4.33633 dts:166 dts_time:4.33633 duration:1 duration_time:0.0261224 stream_index:1
pts:112 pts_time:4.48 dts:112 dts_time:4.48 duration:0 duration_time:0 stream_index:0
pts:167 pts_time:4.36245 dts:167 dts_time:4.36245 duration:1 duration_time:0.0261224 stream_index:1
pts:168 pts_time:4.38857 dts:168 dts_time:4.38857 duration:1 duration_time:0.0261224 stream_index:1
pts:113 pts_time:4.52 dts:113 dts_time:4.52 duration:0 duration_time:0 stream_index:0
pts:169 pts_time:4.41469 dts:169 dts_time:4.41469 duration:1 duration_time:0.0261224 stream_index:1
pts:114 pts_time:4.56 dts:114 dts_time:4.56 duration:0 duration_time:0 stream_index:0
pts:170 pts_time:4.44082 dts:170 dts_time:4.44082 duration:1 duration_time:0.0261224 stream_index:1
pts:171 pts_time:4.46694 dts:171 dts_time:4.46694 duration:1 duration_time:0.0261224 stream_index:1
pts:115 pts_time:4.6 dts:115 dts_time:4.6 duration:0 duration_time:0 stream_index:0
pts:172 pts_time:4.49306 dts:172 dts_time:4.49306 duration:1 duration_time:0.0261224 stream_index:1
pts:116 pts_time:4.64 dts:116 dts_time:4.64 duration:0 duration_time:0 stream_index:0
pts:173 pts_time:4.51918 dts:173 dts_time:4.51918 duration:1 duration_time:0.0261224 stream_index:1
pts:174 pts_time:4.54531 dts:174 dts_time:4.54531 duration:1 duration_time:0.0261224 stream_index:1
pts:117 pts_time:4.68 dts:117 dts_time:4.68 duration:0 duration_time:0 stream_index:0
pts:175 pts_time:4.57143 dts:175 dts_time:4.57143 duration:1 duration_time:0.0261224 stream_index:1
pts:118 pts_time:4.72 dts:118 dts_time:4.72 duration:0 duration_time:0 stream_index:0
pts:176 pts_time:4.59755 dts:176 dts_time:4.59755 duration:1 duration_time:0.0261224 stream_index:1
pts:177 pts_time:4.62367 dts:177 dts_time:4.62367 duration:1 duration_time:0.0261224 stream_index:1
pts:119 pts_time:4.76 dts:119 dts_time:4.76 duration:0 duration_time:0 stream_index:0
pts:178 pts_time:4.6498 dts:178 dts_time:4.6498 duration:1 duration_time:0.0261224 stream_index:1
pts:120 pts_time:4.8 dts:120 dts_time:4.8 duration:0 duration_time:0 stream_index:0
pts:179 pts_time:4.67592 dts:179 dts_time:4.67592 duration:1 duration_time:0.0261224 stream_index:1
pts:180 pts_time:4.70204 dts:180 dts_time:4.70204 duration:1 duration_time:0.0261224 stream_index:1
pts:121 pts_time:4.84 dts:121 dts_time:4.84 duration:0 duration_time:0 stream_index:0
pts:181 pts_time:4.72816 dts:181 dts_time:4.72816 duration:1 duration_time:0.0261224 stream_index:1
pts:122 pts_time:4.88 dts:122 dts_time:4.88 duration:0 duration_time:0 stream_index:0
pts:182 pts_time:4.75429 dts:182 dts_time:4.75429 duration:1 duration_time:0.0261224 stream_index:1
pts:183 pts_time:4.78041 dts:183 dts_time:4.78041 duration:1 duration_time:0.0261224 stream_index:1
pts:123 pts_time:4.92 dts:123 dts_time:4.92 duration:0 duration_time:0 stream_index:0
pts:184 pts_time:4.80653 dts:184 dts_time:4.80653 duration:1 duration_time:0.0261224 stream_index:1
pts:124 pts_time:4.96 dts:124 dts_time:4.96 duration:0 duration_time:0 stream_index:0
pts:185 pts_time:4.83265 dts:185 dts_time:4.83265 duration:1 duration_time:0.0261224 stream_index:1
pts:186 pts_time:4.85878 dts:186 dts_time:4.85878 duration:1 duration_time:0.0261224 stream_index:1
pts:125 pts_time:5 dts:125 dts_time:5 duration:0 duration_time:0 stream_index:0
pts:187 pts_time:4.8849 dts:187 dts_time:4.8849 duration:1 duration_time:0.0261224 stream_index:1
pts:126 pts_time:5.04 dts:126 dts_time:5.04 duration:0 duration_time:0 stream_index:0
pts:188 pts_time:4.91102 dts:188 dts_time:4.91102 duration:1 duration_time:0.0261224 stream_index:1
pts:189 pts_time:4.93714 dts:189 dts_time:4.93714 duration:1 duration_time:0.0261224 stream_index:1
pts:127 pts_time:5.08 dts:127 dts_time:5.08 duration:0 duration_time:0 stream_index:0
pts:190 pts_time:4.96327 dts:190 dts_time:4.96327 duration:1 duration_time:0.0261224 stream_index:1
pts:128 pts_time:5.12 dts:128 dts_time:5.12 duration:0 duration_time:0 stream_index:0
pts:191 pts_time:4.98939 dts:191 dts_time:4.98939 duration:1 duration_time:0.0261224 stream_index:1
pts:192 pts_time:5.01551 dts:192 dts_time:5.01551 duration:1 duration_time:0.0261224 stream_index:1
pts:129 pts_time:5.16 dts:129 dts_time:5.16 duration:0 duration_time:0 stream_index:0
pts:193 pts_time:5.04163 dts:193 dts_time:5.04163 duration:1 duration_time:0.0261224 stream_index:1
pts:194 pts_time:5.06776 dts:194 dts_time:5.06776 duration:1 duration_time:0.0261224 stream_index:1
pts:130 pts_time:5.2 dts:130 dts_time:5.2 duration:0 duration_time:0 stream_index:0
pts:195 pts_time:5.09388 dts:195 dts_time:5.09388 duration:1 duration_time:0.0261224 stream_index:1
pts:131 pts_time:5.24 dts:131 dts_time:5.24 duration:0 duration_time:0 stream_index:0
pts:196 pts_time:5.12 dts:196 dts_time:5.12 duration:1 duration_time:0.0261224 stream_index:1
pts:197 pts_time:5.14612 dts:197 dts_time:5.14612 duration:1 duration_time:0.0261224 stream_index:1
pts:132 pts_time:5.28 dts:132 dts_time:5.28 duration:0 duration_time:0 stream_index:0
pts:198 pts_time:5.17224 dts:198 dts_time:5.17224 duration:1 duration_time:0.0261224 stream_index:1
pts:133 pts_time:5.32 dts:133 dts_time:5.32 duration:0 duration_time:0 stream_index:0
pts:199 pts_time:5.19837 dts:199 dts_time:5.19837 duration:1 duration_time:0.0261224 stream_index:1
pts:200 pts_time:5.22449 dts:200 dts_time:5.22449 duration:1 duration_time:0.0261224 stream_index:1
pts:134 pts_time:5.36 dts:134 dts_time:5.36 duration:0 duration_time:0 stream_index:0
pts:201 pts_time:5.25061 dts:201 dts_time:5.25061 duration:1 duration_time:0.0261224 stream_index:1
pts:135 pts_time:5.4 dts:135 dts_time:5.4 duration:0 duration_time:0 stream_index:0
pts:202 pts_time:5.27673 dts:202 dts_time:5.27673 duration:1 duration_time:0.0261224 stream_index:1
pts:203 pts_time:5.30286 dts:203 dts_time:5.30286 duration:1 duration_time:0.0261224 stream_index:1
pts:136 pts_time:5.44 dts:136 dts_time:5.44 duration:0 duration_time:0 stream_index:0
pts:204 pts_time:5.32898 dts:204 dts_time:5.32898 duration:1 duration_time:0.0261224 stream_index:1
pts:137 pts_time:5.48 dts:137 dts_time:5.48 duration:0 duration_time:0 stream_index:0
pts:205 pts_time:5.3551 dts:205 dts_time:5.3551 duration:1 duration_time:0.0261224 stream_index:1
pts:206 pts_time:5.38122 dts:206 dts_time:5.38122 duration:1 duration_time:0.0261224 stream_index:1
pts:138 pts_time:5.52 dts:138 dts_time:5.52 duration:0 duration_time:0 stream_index:0
pts:207 pts_time:5.40735 dts:207 dts_time:5.40735 duration:1 duration_time:0.0261224 stream_index:1
pts:139 pts_time:5.56 dts:139 dts_time:5.56 duration:0 duration_time:0 stream_index:0
pts:208 pts_time:5.43347 dts:208 dts_time:5.43347 duration:1 duration_time:0.0261224 stream_index:1
pts:209 pts_time:5.45959 dts:209 dts_time:5.45959 duration:1 duration_time:0.0261224 stream_index:1
pts:140 pts_time:5.6 dts:140 dts_time:5.6 duration:0 duration_time:0 stream_index:0
pts:210 pts_time:5.48571 dts:210 dts_time:5.48571 duration:1 duration_time:0.0261224 stream_index:1
pts:141 pts_time:5.64 dts:141 dts_time:5.64 duration:0 duration_time:0 stream_index:0
pts:211 pts_time:5.51184 dts:211 dts_time:5.51184 duration:1 duration_time:0.0261224 stream_index:1
pts:212 pts_time:5.53796 dts:212 dts_time:5.53796 duration:1 duration_time:0.0261224 stream_index:1
pts:142 pts_time:5.68 dts:142 dts_time:5.68 duration:0 duration_time:0 stream_index:0
pts:213 pts_time:5.56408 dts:213 dts_time:5.56408 duration:1 duration_time:0.0261224 stream_index:1
pts:143 pts_time:5.72 dts:143 dts_time:5.72 duration:0 duration_time:0 stream_index:0
pts:214 pts_time:5.5902 dts:214 dts_time:5.5902 duration:1 duration_time:0.0261224 stream_index:1
pts:215 pts_time:5.61633 dts:215 dts_time:5.61633 duration:1 duration_time:0.0261224 stream_index:1
pts:144 pts_time:5.76 dts:144 dts_time:5.76 duration:0 duration_time:0 stream_index:0
pts:216 pts_time:5.64245 dts:216 dts_time:5.64245 duration:1 duration_time:0.0261224 stream_index:1
pts:217 pts_time:5.66857 dts:217 dts_time:5.66857 duration:1 duration_time:0.0261224 stream_index:1
pts:145 pts_time:5.8 dts:145 dts_time:5.8 duration:0 duration_time:0 stream_index:0
pts:218 pts_time:5.69469 dts:218 dts_time:5.69469 duration:1 duration_time:0.0261224 stream_index:1
pts:146 pts_time:5.84 dts:146 dts_time:5.84 duration:0 duration_time:0 stream_index:0
pts:219 pts_time:5.72082 dts:219 dts_time:5.72082 duration:1 duration_time:0.0261224 stream_index:1
pts:220 pts_time:5.74694 dts:220 dts_time:5.74694 duration:1 duration_time:0.0261224 stream_index:1
pts:147 pts_time:5.88 dts:147 dts_time:5.88 duration:0 duration_time:0 stream_index:0
pts:221 pts_time:5.77306 dts:221 dts_time:5.77306 duration:1 duration_time:0.0261224 stream_index:1
pts:148 pts_time:5.92 dts:148 dts_time:5.92 duration:0 duration_time:0 stream_index:0
pts:222 pts_time:5.79918 dts:222 dts_time:5.79918 duration:1 duration_time:0.0261224 stream_index:1
pts:223 pts_time:5.82531 dts:223 dts_time:5.82531 duration:1 duration_time:0.0261224 stream_index:1
pts:149 pts_time:5.96 dts:149 dts_time:5.96 duration:0 duration_time:0 stream_index:0
pts:224 pts_time:5.85143 dts:224 dts_time:5.85143 duration:1 duration_time:0.0261224 stream_index:1
pts:150 pts_time:6 dts:150 dts_time:6 duration:0 duration_time:0 stream_index:0
pts:225 pts_time:5.87755 dts:225 dts_time:5.87755 duration:1 duration_time:0.0261224 stream_index:1
pts:226 pts_time:5.90367 dts:226 dts_time:5.90367 duration:1 duration_time:0.0261224 stream_index:1
pts:151 pts_time:6.04 dts:151 dts_time:6.04 duration:0 duration_time:0 stream_index:0
pts:227 pts_time:5.9298 dts:227 dts_time:5.9298 duration:1 duration_time:0.0261224 stream_index:1
pts:152 pts_time:6.08 dts:152 dts_time:6.08 duration:0 duration_time:0 stream_index:0
pts:228 pts_time:5.95592 dts:228 dts_time:5.95592 duration:1 duration_time:0.0261224 stream_index:1
pts:229 pts_time:5.98204 dts:229 dts_time:5.98204 duration:1 duration_time:0.0261224 stream_index:1
pts:153 pts_time:6.12 dts:153 dts_time:6.12 duration:0 duration_time:0 stream_index:0
pts:230 pts_time:6.00816 dts:230 dts_time:6.00816 duration:1 duration_time:0.0261224 stream_index:1
pts:154 pts_time:6.16 dts:154 dts_time:6.16 duration:0 duration_time:0 stream_index:0
pts:231 pts_time:6.03429 dts:231 dts_time:6.03429 duration:1 duration_time:0.0261224 stream_index:1
pts:232 pts_time:6.06041 dts:232 dts_time:6.06041 duration:1 duration_time:0.0261224 stream_index:1
pts:155 pts_time:6.2 dts:155 dts_time:6.2 duration:0 duration_time:0 stream_index:0
pts:233 pts_time:6.08653 dts:233 dts_time:6.08653 duration:1 duration_time:0.0261224 stream_index:1
pts:156 pts_time:6.24 dts:156 dts_time:6.24 duration:0 duration_time:0 stream_index:0
pts:234 pts_time:6.11265 dts:234 dts_time:6.11265 duration:1 duration_time:0.0261224 stream_index:1
pts:235 pts_time:6.13878 dts:235 dts_time:6.13878 duration:1 duration_time:0.0261224 stream_index:1
pts:157 pts_time:6.28 dts:157 dts_time:6.28 duration:0 duration_time:0 stream_index:0
pts:236 pts_time:6.1649 dts:236 dts_time:6.1649 duration:1 duration_time:0.0261224 stream_index:1
pts:158 pts_time:6.32 dts:158 dts_time:6.32 duration:0 duration_time:0 stream_index:0
pts:237 pts_time:6.19102 dts:237 dts_time:6.19102 duration:1 duration_time:0.0261224 stream_index:1
pts:238 pts_time:6.21714 dts:238 dts_time:6.21714 duration:1 duration_time:0.0261224 stream_index:1
pts:159 pts_time:6.36 dts:159 dts_time:6.36 duration:0 duration_time:0 stream_index:0
pts:239 pts_time:6.24327 dts:239 dts_time:6.24327 duration:1 duration_time:0.0261224 stream_index:1
pts:160 pts_time:6.4 dts:160 dts_time:6.4 duration:0 duration_time:0 stream_index:0
pts:240 pts_time:6.26939 dts:240 dts_time:6.26939 duration:1 duration_time:0.0261224 stream_index:1
pts:241 pts_time:6.29551 dts:241 dts_time:6.29551 duration:1 duration_time:0.0261224 stream_index:1
pts:161 pts_time:6.44 dts:161 dts_time:6.44 duration:0 duration_time:0 stream_index:0
pts:242 pts_time:6.32163 dts:242 dts_time:6.32163 duration:1 duration_time:0.0261224 stream_index:1
pts:243 pts_time:6.34776 dts:243 dts_time:6.34776 duration:1 duration_time:0.0261224 stream_index:1
pts:162 pts_time:6.48 dts:162 dts_time:6.48 duration:0 duration_time:0 stream_index:0
pts:244 pts_time:6.37388 dts:244 dts_time:6.37388 duration:1 duration_time:0.0261224 stream_index:1
pts:163 pts_time:6.52 dts:163 dts_time:6.52 duration:0 duration_time:0 stream_index:0
pts:245 pts_time:6.4 dts:245 dts_time:6.4 duration:1 duration_time:0.0261224 stream_index:1
pts:246 pts_time:6.42612 dts:246 dts_time:6.42612 duration:1 duration_time:0.0261224 stream_index:1
pts:164 pts_time:6.56 dts:164 dts_time:6.56 duration:0 duration_time:0 stream_index:0
pts:247 pts_time:6.45224 dts:247 dts_time:6.45224 duration:1 duration_time:0.0261224 stream_index:1
pts:165 pts_time:6.6 dts:165 dts_time:6.6 duration:0 duration_time:0 stream_index:0
pts:248 pts_time:6.47837 dts:248 dts_time:6.47837 duration:1 duration_time:0.0261224 stream_index:1
pts:249 pts_time:6.50449 dts:249 dts_time:6.50449 duration:1 duration_time:0.0261224 stream_index:1
pts:166 pts_time:6.64 dts:166 dts_time:6.64 duration:0 duration_time:0 stream_index:0
pts:250 pts_time:6.53061 dts:250 dts_time:6.53061 duration:1 duration_time:0.0261224 stream_index:1
pts:167 pts_time:6.68 dts:167 dts_time:6.68 duration:0 duration_time:0 stream_index:0
pts:251 pts_time:6.55673 dts:251 dts_time:6.55673 duration:1 duration_time:0.0261224 stream_index:1
pts:252 pts_time:6.58286 dts:252 dts_time:6.58286 duration:1 duration_time:0.0261224 stream_index:1
pts:168 pts_time:6.72 dts:168 dts_time:6.72 duration:0 duration_time:0 stream_index:0
pts:253 pts_time:6.60898 dts:253 dts_time:6.60898 duration:1 duration_time:0.0261224 stream_index:1
pts:169 pts_time:6.76 dts:169 dts_time:6.76 duration:0 duration_time:0 stream_index:0
pts:254 pts_time:6.6351 dts:254 dts_time:6.6351 duration:1 duration_time:0.0261224 stream_index:1
pts:255 pts_time:6.66122 dts:255 dts_time:6.66122 duration:1 duration_time:0.0261224 stream_index:1
pts:170 pts_time:6.8 dts:170 dts_time:6.8 duration:0 duration_time:0 stream_index:0
pts:256 pts_time:6.68735 dts:256 dts_time:6.68735 duration:1 duration_time:0.0261224 stream_index:1
pts:171 pts_time:6.84 dts:171 dts_time:6.84 duration:0 duration_time:0 stream_index:0
pts:257 pts_time:6.71347 dts:257 dts_time:6.71347 duration:1 duration_time:0.0261224 stream_index:1
pts:258 pts_time:6.73959 dts:258 dts_time:6.73959 duration:1 duration_time:0.0261224 stream_index:1
pts:172 pts_time:6.88 dts:172 dts_time:6.88 duration:0 duration_time:0 stream_index:0
pts:259 pts_time:6.76571 dts:259 dts_time:6.76571 duration:1 duration_time:0.0261224 stream_index:1
pts:173 pts_time:6.92 dts:173 dts_time:6.92 duration:0 duration_time:0 stream_index:0
pts:260 pts_time:6.79184 dts:260 dts_time:6.79184 duration:1 duration_time:0.0261224 stream_index:1
pts:261 pts_time:6.81796 dts:261 dts_time:6.81796 duration:1 duration_time:0.0261224 stream_index:1
pts:174 pts_time:6.96 dts:174 dts_time:6.96 duration:0 duration_time:0 stream_index:0
pts:262 pts_time:6.84408 dts:262 dts_time:6.84408 duration:1 duration_time:0.0261224 stream_index:1
pts:175 pts_time:7 dts:175 dts_time:7 duration:0 duration_time:0 stream_index:0
pts:263 pts_time:6.8702 dts:263 dts_time:6.8702 duration:1 duration_time:0.0261224 stream_index:1
pts:264 pts_time:6.89633 dts:264 dts_time:6.89633 duration:1 duration_time:0.0261224 stream_index:1
pts:176 pts_time:7.04 dts:176 dts_time:7.04 duration:0 duration_time:0 stream_index:0
pts:265 pts_time:6.92245 dts:265 dts_time:6.92245 duration:1 duration_time:0.0261224 stream_index:1
pts:266 pts_time:6.94857 dts:266 dts_time:6.94857 duration:1 duration_time:0.0261224 stream_index:1
pts:177 pts_time:7.08 dts:177 dts_time:7.08 duration:0 duration_time:0 stream_index:0
pts:267 pts_time:6.97469 dts:267 dts_time:6.97469 duration:1 duration_time:0.0261224 stream_index:1
pts:178 pts_time:7.12 dts:178 dts_time:7.12 duration:0 duration_time:0 stream_index:0
pts:268 pts_time:7.00082 dts:268 dts_time:7.00082 duration:1 duration_time:0.0261224 stream_index:1
pts:269 pts_time:7.02694 dts:269 dts_time:7.02694 duration:1 duration_time:0.0261224 stream_index:1
pts:179 pts_time:7.16 dts:179 dts_time:7.16 duration:0 duration_time:0 stream_index:0
pts:270 pts_time:7.05306 dts:270 dts_time:7.05306 duration:1 duration_time:0.0261224 stream_index:1
pts:180 pts_time:7.2 dts:180 dts_time:7.2 duration:0 duration_time:0 stream_index:0
pts:271 pts_time:7.07918 dts:271 dts_time:7.07918 duration:1 duration_time:0.0261224 stream_index:1
pts:272 pts_time:7.10531 dts:272 dts_time:7.10531 duration:1 duration_time:0.0261224 stream_index:1
pts:181 pts_time:7.24 dts:181 dts_time:7.24 duration:0 duration_time:0 stream_index:0
pts:273 pts_time:7.13143 dts:273 dts_time:7.13143 duration:1 duration_time:0.0261224 stream_index:1
pts:182 pts_time:7.28 dts:182 dts_time:7.28 duration:0 duration_time:0 stream_index:0
pts:274 pts_time:7.15755 dts:274 dts_time:7.15755 duration:1 duration_time:0.0261224 stream_index:1
pts:275 pts_time:7.18367 dts:275 dts_time:7.18367 duration:1 duration_time:0.0261224 stream_index:1
pts:183 pts_time:7.32 dts:183 dts_time:7.32 duration:0 duration_time:0 stream_index:0
pts:276 pts_time:7.2098 dts:276 dts_time:7.2098 duration:1 duration_time:0.0261224 stream_index:1
pts:184 pts_time:7.36 dts:184 dts_time:7.36 duration:0 duration_time:0 stream_index:0
pts:277 pts_time:7.23592 dts:277 dts_time:7.23592 duration:1 duration_time:0.0261224 stream_index:1
pts:278 pts_time:7.26204 dts:278 dts_time:7.26204 duration:1 duration_time:0.0261224 stream_index:1
pts:185 pts_time:7.4 dts:185 dts_time:7.4 duration:0 duration_time:0 stream_index:0
pts:279 pts_time:7.28816 dts:279 dts_time:7.28816 duration:1 duration_time:0.0261224 stream_index:1
pts:186 pts_time:7.44 dts:186 dts_time:7.44 duration:0 duration_time:0 stream_index:0
pts:280 pts_time:7.31429 dts:280 dts_time:7.31429 duration:1 duration_time:0.0261224 stream_index:1
pts:281 pts_time:7.34041 dts:281 dts_time:7.34041 duration:1 duration_time:0.0261224 stream_index:1
pts:187 pts_time:7.48 dts:187 dts_time:7.48 duration:0 duration_time:0 stream_index:0
pts:282 pts_time:7.36653 dts:282 dts_time:7.36653 duration:1 duration_time:0.0261224 stream_index:1
pts:188 pts_time:7.52 dts:188 dts_time:7.52 duration:0 duration_time:0 stream_index:0
pts:283 pts_time:7.39265 dts:283 dts_time:7.39265 duration:1 duration_time:0.0261224 stream_index:1
pts:284 pts_time:7.41878 dts:284 dts_time:7.41878 duration:1 duration_time:0.0261224 stream_index:1
pts:189 pts_time:7.56 dts:189 dts_time:7.56 duration:0 duration_time:0 stream_index:0
pts:285 pts_time:7.4449 dts:285 dts_time:7.4449 duration:1 duration_time:0.0261224 stream_index:1
pts:190 pts_time:7.6 dts:190 dts_time:7.6 duration:0 duration_time:0 stream_index:0
pts:286 pts_time:7.47102 dts:286 dts_time:7.47102 duration:1 duration_time:0.0261224 stream_index:1
pts:287 pts_time:7.49714 dts:287 dts_time:7.49714 duration:1 duration_time:0.0261224 stream_index:1
pts:191 pts_time:7.64 dts:191 dts_time:7.64 duration:0 duration_time:0 stream_index:0
pts:288 pts_time:7.52327 dts:288 dts_time:7.52327 duration:1 duration_time:0.0261224 stream_index:1
pts:192 pts_time:7.68 dts:192 dts_time:7.68 duration:0 duration_time:0 stream_index:0
pts:289 pts_time:7.54939 dts:289 dts_time:7.54939 duration:1 duration_time:0.0261224 stream_index:1
pts:290 pts_time:7.57551 dts:290 dts_time:7.57551 duration:1 duration_time:0.0261224 stream_index:1
pts:193 pts_time:7.72 dts:193 dts_time:7.72 duration:0 duration_time:0 stream_index:0
pts:291 pts_time:7.60163 dts:291 dts_time:7.60163 duration:1 duration_time:0.0261224 stream_index:1
pts:292 pts_time:7.62776 dts:292 dts_time:7.62776 duration:1 duration_time:0.0261224 stream_index:1
pts:194 pts_time:7.76 dts:194 dts_time:7.76 duration:0 duration_time:0 stream_index:0
pts:293 pts_time:7.65388 dts:293 dts_time:7.65388 duration:1 duration_time:0.0261224 stream_index:1
pts:195 pts_time:7.8 dts:195 dts_time:7.8 duration:0 duration_time:0 stream_index:0
pts:294 pts_time:7.68 dts:294 dts_time:7.68 duration:1 duration_time:0.0261224 stream_index:1
pts:295 pts_time:7.70612 dts:295 dts_time:7.70612 duration:1 duration_time:0.0261224 stream_index:1
pts:196 pts_time:7.84 dts:196 dts_time:7.84 duration:0 duration_time:0 stream_index:0
pts:296 pts_time:7.73224 dts:296 dts_time:7.73224 duration:1 duration_time:0.0261224 stream_index:1
pts:197 pts_time:7.88 dts:197 dts_time:7.88 duration:0 duration_time:0 stream_index:0
pts:297 pts_time:7.75837 dts:297 dts_time:7.75837 duration:1 duration_time:0.0261224 stream_index:1
pts:298 pts_time:7.78449 dts:298 dts_time:7.78449 duration:1 duration_time:0.0261224 stream_index:1
pts:198 pts_time:7.92 dts:198 dts_time:7.92 duration:0 duration_time:0 stream_index:0
pts:299 pts_time:7.81061 dts:299 dts_time:7.81061 duration:1 duration_time:0.0261224 stream_index:1
pts:199 pts_time:7.96 dts:199 dts_time:7.96 duration:0 duration_time:0 stream_index:0
pts:300 pts_time:7.83673 dts:300 dts_time:7.83673 duration:1 duration_time:0.0261224 stream_index:1
pts:301 pts_time:7.86286 dts:301 dts_time:7.86286 duration:1 duration_time:0.0261224 stream_index:1
pts:200 pts_time:8 dts:200 dts_time:8 duration:0 duration_time:0 stream_index:0
pts:302 pts_time:7.88898 dts:302 dts_time:7.88898 duration:1 duration_time:0.0261224 stream_index:1
pts:201 pts_time:8.04 dts:201 dts_time:8.04 duration:0 duration_time:0 stream_index:0
pts:303 pts_time:7.9151 dts:303 dts_time:7.9151 duration:1 duration_time:0.0261224 stream_index:1
pts:304 pts_time:7.94122 dts:304 dts_time:7.94122 duration:1 duration_time:0.0261224 stream_index:1
pts:202 pts_time:8.08 dts:202 dts_time:8.08 duration:0 duration_time:0 stream_index:0
pts:305 pts_time:7.96735 dts:305 dts_time:7.96735 duration:1 duration_time:0.0261224 stream_index:1
pts:203 pts_time:8.12 dts:203 dts_time:8.12 duration:0 duration_time:0 stream_index:0
pts:306 pts_time:7.99347 dts:306 dts_time:7.99347 duration:1 duration_time:0.0261224 stream_index:1
pts:307 pts_time:8.01959 dts:307 dts_time:8.01959 duration:1 duration_time:0.0261224 stream_index:1
pts:204 pts_time:8.16 dts:204 dts_time:8.16 duration:0 duration_time:0 stream_index:0
pts:308 pts_time:8.04571 dts:308 dts_time:8.04571 duration:1 duration_time:0.0261224 stream_index:1
pts:205 pts_time:8.2 dts:205 dts_time:8.2 duration:0 duration_time:0 stream_index:0
pts:309 pts_time:8.07184 dts:309 dts_time:8.07184 duration:1 duration_time:0.0261224 stream_index:1
pts:310 pts_time:8.09796 dts:310 dts_time:8.09796 duration:1 duration_time:0.0261224 stream_index:1
pts:206 pts_time:8.24 dts:206 dts_time:8.24 duration:0 duration_time:0 stream_index:0
pts:311 pts_time:8.12408 dts:311 dts_time:8.12408 duration:1 duration_time:0.0261224 stream_index:1
pts:207 pts_time:8.28 dts:207 dts_time:8.28 duration:0 duration_time:0 stream_index:0
pts:312 pts_time:8.1502 dts:312 dts_time:8.1502 duration:1 duration_time:0.0261224 stream_index:1
pts:313 pts_time:8.17633 dts:313 dts_time:8.17633 duration:1 duration_time:0.0261224 stream_index:1
pts:208 pts_time:8.32 dts:208 dts_time:8.32 duration:0 duration_time:0 stream_index:0
pts:314 pts_time:8.20245 dts:314 dts_time:8.20245 duration:1 duration_time:0.0261224 stream_index:1
pts:315 pts_time:8.22857 dts:315 dts_time:8.22857 duration:1 duration_time:0.0261224 stream_index:1
pts:209 pts_time:8.36 dts:209 dts_time:8.36 duration:0 duration_time:0 stream_index:0
pts:316 pts_time:8.25469 dts:316 dts_time:8.25469 duration:1 duration_time:0.0261224 stream_index:1
pts:210 pts_time:8.4 dts:210 dts_time:8.4 duration:0 duration_time:0 stream_index:0
pts:317 pts_time:8.28082 dts:317 dts_time:8.28082 duration:1 duration_time:0.0261224 stream_index:1
pts:318 pts_time:8.30694 dts:318 dts_time:8.30694 duration:1 duration_time:0.0261224 stream_index:1
pts:211 pts_time:8.44 dts:211 dts_time:8.44 duration:0 duration_time:0 stream_index:0
pts:319 pts_time:8.33306 dts:319 dts_time:8.33306 duration:1 duration_time:0.0261224 stream_index:1
pts:212 pts_time:8.48 dts:212 dts_time:8.48 duration:0 duration_time:0 stream_index:0
pts:320 pts_time:8.35918 dts:320 dts_time:8.35918 duration:1 duration_time:0.0261224 stream_index:1
pts:321 pts_time:8.38531 dts:321 dts_time:8.38531 duration:1 duration_time:0.0261224 stream_index:1
pts:213 pts_time:8.52 dts:213 dts_time:8.52 duration:0 duration_time:0 stream_index:0
pts:322 pts_time:8.41143 dts:322 dts_time:8.41143 duration:1 duration_time:0.0261224 stream_index:1
pts:214 pts_time:8.56 dts:214 dts_time:8.56 duration:0 duration_time:0 stream_index:0
pts:323 pts_time:8.43755 dts:323 dts_time:8.43755 duration:1 duration_time:0.0261224 stream_index:1
pts:324 pts_time:8.46367 dts:324 dts_time:8.46367 duration:1 duration_time:0.0261224 stream_index:1
pts:215 pts_time:8.6 dts:215 dts_time:8.6 duration:0 duration_time:0 stream_index:0
pts:325 pts_time:8.4898 dts:325 dts_time:8.4898 duration:1 duration_time:0.0261224 stream_index:1
pts:216 pts_time:8.64 dts:216 dts_time:8.64 duration:0 duration_time:0 stream_index:0
pts:326 pts_time:8.51592 dts:326 dts_time:8.51592 duration:1 duration_time:0.0261224 stream_index:1
pts:327 pts_time:8.54204 dts:327 dts_time:8.54204 duration:1 duration_time:0.0261224 stream_index:1
pts:217 pts_time:8.68 dts:217 dts_time:8.68 duration:0 duration_time:0 stream_index:0
pts:328 pts_time:8.56816 dts:328 dts_time:8.56816 duration:1 duration_time:0.0261224 stream_index:1
pts:218 pts_time:8.72 dts:218 dts_time:8.72 duration:0 duration_time:0 stream_index:0
pts:329 pts_time:8.59429 dts:329 dts_time:8.59429 duration:1 duration_time:0.0261224 stream_index:1
pts:330 pts_time:8.62041 dts:330 dts_time:8.62041 duration:1 duration_time:0.0261224 stream_index:1
pts:219 pts_time:8.76 dts:219 dts_time:8.76 duration:0 duration_time:0 stream_index:0
pts:331 pts_time:8.64653 dts:331 dts_time:8.64653 duration:1 duration_time:0.0261224 stream_index:1
pts:220 pts_time:8.8 dts:220 dts_time:8.8 duration:0 duration_time:0 stream_index:0
pts:332 pts_time:8.67265 dts:332 dts_time:8.67265 duration:1 duration_time:0.0261224 stream_index:1
pts:333 pts_time:8.69878 dts:333 dts_time:8.69878 duration:1 duration_time:0.0261224 stream_index:1
pts:221 pts_time:8.84 dts:221 dts_time:8.84 duration:0 duration_time:0 stream_index:0
pts:334 pts_time:8.7249 dts:334 dts_time:8.7249 duration:1 duration_time:0.0261224 stream_index:1
pts:222 pts_time:8.88 dts:222 dts_time:8.88 duration:0 duration_time:0 stream_index:0
pts:335 pts_time:8.75102 dts:335 dts_time:8.75102 duration:1 duration_time:0.0261224 stream_index:1
pts:336 pts_time:8.77714 dts:336 dts_time:8.77714 duration:1 duration_time:0.0261224 stream_index:1
pts:223 pts_time:8.92 dts:223 dts_time:8.92 duration:0 duration_time:0 stream_index:0
pts:337 pts_time:8.80327 dts:337 dts_time:8.80327 duration:1 duration_time:0.0261224 stream_index:1
pts:224 pts_time:8.96 dts:224 dts_time:8.96 duration:0 duration_time:0 stream_index:0
pts:338 pts_time:8.82939 dts:338 dts_time:8.82939 duration:1 duration_time:0.0261224 stream_index:1
pts:339 pts_time:8.85551 dts:339 dts_time:8.85551 duration:1 duration_time:0.0261224 stream_index:1
pts:225 pts_time:9 dts:225 dts_time:9 duration:0 duration_time:0 stream_index:0
pts:340 pts_time:8.88163 dts:340 dts_time:8.88163 duration:1 duration_time:0.0261224 stream_index:1
pts:341 pts_time:8.90776 dts:341 dts_time:8.90776 duration:1 duration_time:0.0261224 stream_index:1
pts:226 pts_time:9.04 dts:226 dts_time:9.04 duration:0 duration_time:0 stream_index:0
pts:342 pts_time:8.93388 dts:342 dts_time:8.93388 duration:1 duration_time:0.0261224 stream_index:1
pts:227 pts_time:9.08 dts:227 dts_time:9.08 duration:0 duration_time:0 stream_index:0
pts:343 pts_time:8.96 dts:343 dts_time:8.96 duration:1 duration_time:0.0261224 stream_index:1
pts:344 pts_time:8.98612 dts:344 dts_time:8.98612 duration:1 duration_time:0.0261224 stream_index:1
pts:228 pts_time:9.12 dts:228 dts_time:9.12 duration:0 duration_time:0 stream_index:0
pts:345 pts_time:9.01224 dts:345 dts_time:9.01224 duration:1 duration_time:0.0261224 stream_index:1
pts:229 pts_time:9.16 dts:229 dts_time:9.16 duration:0 duration_time:0 stream_index:0
pts:346 pts_time:9.03837 dts:346 dts_time:9.03837 duration:1 duration_time:0.0261224 stream_index:1
pts:347 pts_time:9.06449 dts:347 dts_time:9.06449 duration:1 duration_time:0.0261224 stream_index:1
pts:230 pts_time:9.2 dts:230 dts_time:9.2 duration:0 duration_time:0 stream_index:0
pts:348 pts_time:9.09061 dts:348 dts_time:9.09061 duration:1 duration_time:0.0261224 stream_index:1
pts:231 pts_time:9.24 dts:231 dts_time:9.24 duration:0 duration_time:0 stream_index:0
pts:349 pts_time:9.11673 dts:349 dts_time:9.11673 duration:1 duration_time:0.0261224 stream_index:1
pts:350 pts_time:9.14286 dts:350 dts_time:9.14286 duration:1 duration_time:0.0261224 stream_index:1
pts:232 pts_time:9.28 dts:232 dts_time:9.28 duration:0 duration_time:0 stream_index:0
pts:351 pts_time:9.16898 dts:351 dts_time:9.16898 duration:1 duration_time:0.0261224 stream_index:1
pts:233 pts_time:9.32 dts:233 dts_time:9.32 duration:0 duration_time:0 stream_index:0
pts:352 pts_time:9.1951 dts:352 dts_time:9.1951 duration:1 duration_time:0.0261224 stream_index:1
pts:353 pts_time:9.22122 dts:353 dts_time:9.22122 duration:1 duration_time:0.0261224 stream_index:1
pts:234 pts_time:9.36 dts:234 dts_time:9.36 duration:0 duration_time:0 stream_index:0
pts:354 pts_time:9.24735 dts:354 dts_time:9.24735 duration:1 duration_time:0.0261224 stream_index:1
pts:235 pts_time:9.4 dts:235 dts_time:9.4 duration:0 duration_time:0 stream_index:0
pts:355 pts_time:9.27347 dts:355 dts_time:9.27347 duration:1 duration_time:0.0261224 stream_index:1
pts:356 pts_time:9.29959 dts:356 dts_time:9.29959 duration:1 duration_time:0.0261224 stream_index:1
pts:236 pts_time:9.44 dts:236 dts_time:9.44 duration:0 duration_time:0 stream_index:0
pts:357 pts_time:9.32571 dts:357 dts_time:9.32571 duration:1 duration_time:0.0261224 stream_index:1
pts:237 pts_time:9.48 dts:237 dts_time:9.48 duration:0 duration_time:0 stream_index:0
pts:358 pts_time:9.35184 dts:358 dts_time:9.35184 duration:1 duration_time:0.0261224 stream_index:1
pts:359 pts_time:9.37796 dts:359 dts_time:9.37796 duration:1 duration_time:0.0261224 stream_index:1
pts:238 pts_time:9.52 dts:238 dts_time:9.52 duration:0 duration_time:0 stream_index:0
pts:360 pts_time:9.40408 dts:360 dts_time:9.40408 duration:1 duration_time:0.0261224 stream_index:1
pts:239 pts_time:9.56 dts:239 dts_time:9.56 duration:0 duration_time:0 stream_index:0
pts:361 pts_time:9.4302 dts:361 dts_time:9.4302 duration:1 duration_time:0.0261224 stream_index:1
pts:362 pts_time:9.45633 dts:362 dts_time:9.45633 duration:1 duration_time:0.0261224 stream_index:1
pts:240 pts_time:9.6 dts:240 dts_time:9.6 duration:0 duration_time:0 stream_index:0
pts:363 pts_time:9.48245 dts:363 dts_time:9.48245 duration:1 duration_time:0.0261224 stream_index:1
pts:364 pts_time:9.50857 dts:364 dts_time:9.50857 duration:1 duration_time:0.0261224 stream_index:1
pts:241 pts_time:9.64 dts:241 dts_time:9.64 duration:0 duration_time:0 stream_index:0
pts:365 pts_time:9.53469 dts:365 dts_time:9.53469 duration:1 duration_time:0.0261224 stream_index:1
pts:242 pts_time:9.68 dts:242 dts_time:9.68 duration:0 duration_time:0 stream_index:0
pts:366 pts_time:9.56082 dts:366 dts_time:9.56082 duration:1 duration_time:0.0261224 stream_index:1
pts:367 pts_time:9.58694 dts:367 dts_time:9.58694 duration:1 duration_time:0.0261224 stream_index:1
pts:243 pts_time:9.72 dts:243 dts_time:9.72 duration:0 duration_time:0 stream_index:0
pts:368 pts_time:9.61306 dts:368 dts_time:9.61306 duration:1 duration_time:0.0261224 stream_index:1
pts:244 pts_time:9.76 dts:244 dts_time:9.76 duration:0 duration_time:0 stream_index:0
pts:369 pts_time:9.63918 dts:369 dts_time:9.63918 duration:1 duration_time:0.0261224 stream_index:1
pts:370 pts_time:9.66531 dts:370 dts_time:9.66531 duration:1 duration_time:0.0261224 stream_index:1
pts:245 pts_time:9.8 dts:245 dts_time:9.8 duration:0 duration_time:0 stream_index:0
pts:371 pts_time:9.69143 dts:371 dts_time:9.69143 duration:1 duration_time:0.0261224 stream_index:1
pts:246 pts_time:9.84 dts:246 dts_time:9.84 duration:0 duration_time:0 stream_index:0
pts:372 pts_time:9.71755 dts:372 dts_time:9.71755 duration:1 duration_time:0.0261224 stream_index:1
pts:373 pts_time:9.74367 dts:373 dts_time:9.74367 duration:1 duration_time:0.0261224 stream_index:1
pts:247 pts_time:9.88 dts:247 dts_time:9.88 duration:0 duration_time:0 stream_index:0
pts:374 pts_time:9.7698 dts:374 dts_time:9.7698 duration:1 duration_time:0.0261224 stream_index:1
pts:248 pts_time:9.92 dts:248 dts_time:9.92 duration:0 duration_time:0 stream_index:0
pts:375 pts_time:9.79592 dts:375 dts_time:9.79592 duration:1 duration_time:0.0261224 stream_index:1
pts:376 pts_time:9.82204 dts:376 dts_time:9.82204 duration:1 duration_time:0.0261224 stream_index:1
pts:249 pts_time:9.96 dts:249 dts_time:9.96 duration:0 duration_time:0 stream_index:0
pts:377 pts_time:9.84816 dts:377 dts_time:9.84816 duration:1 duration_time:0.0261224 stream_index:1
pts:250 pts_time:10 dts:250 dts_time:10 duration:0 duration_time:0 stream_index:0
pts:378 pts_time:9.87429 dts:378 dts_time:9.87429 duration:1 duration_time:0.0261224 stream_index:1
pts:379 pts_time:9.90041 dts:379 dts_time:9.90041 duration:1 duration_time:0.0261224 stream_index:1
pts:380 pts_time:9.92653 dts:380 dts_time:9.92653 duration:1 duration_time:0.0261224 stream_index:1
pts:381 pts_time:9.95265 dts:381 dts_time:9.95265 duration:1 duration_time:0.0261224 stream_index:1
pts:382 pts_time:9.97878 dts:382 dts_time:9.97878 duration:1 duration_time:0.0261224 stream_index:1
